<svg width="72" height="72" viewBox="0 0 72 72" fill="none" xmlns="http://www.w3.org/2000/svg">
<g filter="url(#filter0_d_39_182)">
<circle cx="36.5" cy="36.5" r="28.5" fill="#D3D8F5"/>
</g>
<path d="M29.0643 26.8182H31.7987V39.7088C31.7987 40.8748 31.5678 41.872 31.1062 42.7006C30.6505 43.5292 30.0083 44.1625 29.1797 44.6005C28.3511 45.0326 27.3804 45.2486 26.2678 45.2486C25.2438 45.2486 24.3235 45.0621 23.5067 44.6893C22.6959 44.3164 22.0537 43.7749 21.5803 43.0646C21.1127 42.3485 20.8789 41.4785 20.8789 40.4545H23.6044C23.6044 40.9576 23.7198 41.3926 23.9506 41.7596C24.1874 42.1265 24.5099 42.4136 24.9183 42.6207C25.3326 42.822 25.8061 42.9226 26.3388 42.9226C26.9188 42.9226 27.41 42.8013 27.8125 42.5586C28.2209 42.31 28.5316 41.946 28.7447 41.4666C28.9577 40.9872 29.0643 40.4013 29.0643 39.7088V26.8182ZM47.708 31.5945C47.6133 30.754 47.2227 30.103 46.5361 29.6413C45.8496 29.1738 44.9855 28.94 43.9438 28.94C43.1981 28.94 42.5529 29.0584 42.0084 29.2951C41.4639 29.5259 41.0407 29.8455 40.7389 30.2539C40.443 30.6564 40.295 31.1151 40.295 31.63C40.295 32.062 40.3956 32.4349 40.5969 32.7486C40.804 33.0623 41.0733 33.3256 41.4047 33.5387C41.7421 33.7459 42.1031 33.9205 42.4878 34.0625C42.8725 34.1986 43.2425 34.3111 43.5976 34.3999L45.3731 34.8615C45.9532 35.0036 46.548 35.1959 47.1576 35.4386C47.7672 35.6812 48.3324 36.0008 48.8532 36.3974C49.3741 36.7939 49.7943 37.2852 50.1139 37.8711C50.4394 38.457 50.6022 39.1584 50.6022 39.9751C50.6022 41.005 50.3358 41.9194 49.8032 42.7184C49.2764 43.5174 48.51 44.1477 47.5038 44.6094C46.5036 45.071 45.2932 45.3018 43.8728 45.3018C42.5115 45.3018 41.3337 45.0858 40.3394 44.6538C39.3451 44.2217 38.5668 43.6091 38.0045 42.8161C37.4423 42.017 37.1315 41.0701 37.0724 39.9751H39.8245C39.8778 40.6321 40.0908 41.1796 40.4637 41.6175C40.8425 42.0496 41.3248 42.3722 41.9108 42.5852C42.5026 42.7924 43.1507 42.896 43.855 42.896C44.6304 42.896 45.3199 42.7746 45.9236 42.532C46.5332 42.2834 47.0126 41.9401 47.3618 41.5021C47.711 41.0582 47.8856 40.5404 47.8856 39.9485C47.8856 39.4099 47.7317 38.969 47.4239 38.6257C47.1221 38.2824 46.7107 37.9983 46.1899 37.7734C45.675 37.5485 45.092 37.3503 44.441 37.1786L42.2925 36.5927C40.8366 36.1961 39.6824 35.6132 38.8302 34.8438C37.9838 34.0743 37.5606 33.0563 37.5606 31.7898C37.5606 30.7422 37.8447 29.8278 38.4129 29.0465C38.9811 28.2653 39.7505 27.6586 40.7211 27.2266C41.6918 26.7886 42.7867 26.5696 44.0059 26.5696C45.237 26.5696 46.3231 26.7856 47.2641 27.2177C48.2111 27.6497 48.9568 28.2446 49.5013 29.0021C50.0458 29.7538 50.3299 30.6179 50.3536 31.5945H47.708Z" fill="#4B4B4B"/>
<defs>
<filter id="filter0_d_39_182" x="8" y="8" width="57" height="60" filterUnits="userSpaceOnUse" color-interpolation-filters="sRGB">
<feFlood flood-opacity="0" result="BackgroundImageFix"/>
<feColorMatrix in="SourceAlpha" type="matrix" values="0 0 0 0 0 0 0 0 0 0 0 0 0 0 0 0 0 0 127 0" result="hardAlpha"/>
<feMorphology radius="2" operator="erode" in="SourceAlpha" result="effect1_dropShadow_39_182"/>
<feOffset dy="4"/>
<feGaussianBlur stdDeviation="0.5"/>
<feComposite in2="hardAlpha" operator="out"/>
<feColorMatrix type="matrix" values="0 0 0 0 0 0 0 0 0 0 0 0 0 0 0 0 0 0 0.25 0"/>
<feBlend mode="normal" in2="BackgroundImageFix" result="effect1_dropShadow_39_182"/>
<feBlend mode="normal" in="SourceGraphic" in2="effect1_dropShadow_39_182" result="shape"/>
</filter>
</defs>
</svg>
