<svg width="72" height="72" viewBox="0 0 72 72" fill="none" xmlns="http://www.w3.org/2000/svg">
<path d="M10 51.6667V45.8855C10 44.7049 10.2951 43.6112 10.8854 42.6042C11.4757 41.5973 12.2917 40.8334 13.3333 40.3125C13.8194 40.0695 14.2882 39.8438 14.7396 39.6355C15.2257 39.4271 15.7292 39.2362 16.25 39.0625V51.6667H10ZM18.3333 37.0834C16.5972 37.0834 15.1215 36.4757 13.9063 35.2605C12.691 34.0452 12.0833 32.5695 12.0833 30.8334C12.0833 29.0973 12.691 27.6216 13.9063 26.4063C15.1215 25.191 16.5972 24.5834 18.3333 24.5834C20.0694 24.5834 21.5451 25.191 22.7604 26.4063C23.9757 27.6216 24.5833 29.0973 24.5833 30.8334C24.5833 32.5695 23.9757 34.0452 22.7604 35.2605C21.5451 36.4757 20.0694 37.0834 18.3333 37.0834ZM18.3333 32.9167C18.9236 32.9167 19.4097 32.7257 19.7917 32.3438C20.2083 31.9271 20.4167 31.4237 20.4167 30.8334C20.4167 30.2431 20.2083 29.757 19.7917 29.375C19.4097 28.9584 18.9236 28.75 18.3333 28.75C17.7431 28.75 17.2396 28.9584 16.8229 29.375C16.441 29.757 16.25 30.2431 16.25 30.8334C16.25 31.4237 16.441 31.9271 16.8229 32.3438C17.2396 32.7257 17.7431 32.9167 18.3333 32.9167ZM18.3333 51.6667V45.8334C18.3333 44.6528 18.6285 43.5764 19.2188 42.6042C19.8438 41.5973 20.6597 40.8334 21.6667 40.3125C23.8194 39.2362 26.0069 38.4375 28.2292 37.9167C30.4514 37.3612 32.7083 37.0834 35 37.0834C37.2917 37.0834 39.5486 37.3612 41.7708 37.9167C43.9931 38.4375 46.1806 39.2362 48.3333 40.3125C49.3403 40.8334 50.1389 41.5973 50.7292 42.6042C51.3542 43.5764 51.6667 44.6528 51.6667 45.8334V51.6667H18.3333ZM22.5 47.5H47.5V45.8334C47.5 45.4514 47.3958 45.1042 47.1875 44.7917C47.0139 44.4792 46.7708 44.2362 46.4583 44.0625C44.5833 43.125 42.691 42.4306 40.7812 41.9792C38.8715 41.4931 36.9444 41.25 35 41.25C33.0556 41.25 31.1285 41.4931 29.2188 41.9792C27.309 42.4306 25.4167 43.125 23.5417 44.0625C23.2292 44.2362 22.9687 44.4792 22.7604 44.7917C22.5868 45.1042 22.5 45.4514 22.5 45.8334V47.5ZM35 35C32.7083 35 30.7465 34.1841 29.1146 32.5521C27.4826 30.9202 26.6667 28.9584 26.6667 26.6667C26.6667 24.375 27.4826 22.4132 29.1146 20.7813C30.7465 19.1493 32.7083 18.3334 35 18.3334C37.2917 18.3334 39.2535 19.1493 40.8854 20.7813C42.5174 22.4132 43.3333 24.375 43.3333 26.6667C43.3333 28.9584 42.5174 30.9202 40.8854 32.5521C39.2535 34.1841 37.2917 35 35 35ZM35 30.8334C36.1458 30.8334 37.1181 30.4341 37.9167 29.6355C38.75 28.8021 39.1667 27.8125 39.1667 26.6667C39.1667 25.5209 38.75 24.5487 37.9167 23.75C37.1181 22.9167 36.1458 22.5 35 22.5C33.8542 22.5 32.8646 22.9167 32.0312 23.75C31.2326 24.5487 30.8333 25.5209 30.8333 26.6667C30.8333 27.8125 31.2326 28.8021 32.0312 29.6355C32.8646 30.4341 33.8542 30.8334 35 30.8334ZM51.6667 37.0834C49.9306 37.0834 48.4549 36.4757 47.2396 35.2605C46.0243 34.0452 45.4167 32.5695 45.4167 30.8334C45.4167 29.0973 46.0243 27.6216 47.2396 26.4063C48.4549 25.191 49.9306 24.5834 51.6667 24.5834C53.4028 24.5834 54.8785 25.191 56.0938 26.4063C57.309 27.6216 57.9167 29.0973 57.9167 30.8334C57.9167 32.5695 57.309 34.0452 56.0938 35.2605C54.8785 36.4757 53.4028 37.0834 51.6667 37.0834ZM51.6667 32.9167C52.2569 32.9167 52.7431 32.7257 53.125 32.3438C53.5417 31.9271 53.75 31.4237 53.75 30.8334C53.75 30.2431 53.5417 29.757 53.125 29.375C52.7431 28.9584 52.2569 28.75 51.6667 28.75C51.0764 28.75 50.5729 28.9584 50.1562 29.375C49.7743 29.757 49.5833 30.2431 49.5833 30.8334C49.5833 31.4237 49.7743 31.9271 50.1562 32.3438C50.5729 32.7257 51.0764 32.9167 51.6667 32.9167ZM53.75 51.6667V39.0625C54.2708 39.2362 54.7569 39.4271 55.2083 39.6355C55.6944 39.8438 56.1806 40.0695 56.6667 40.3125C57.7083 40.8334 58.5243 41.5973 59.1146 42.6042C59.7049 43.6112 60 44.7049 60 45.8855V51.6667H53.75Z" fill="#8EB486"/>
</svg>
