<svg width="72" height="72" viewBox="0 0 72 72" fill="none" xmlns="http://www.w3.org/2000/svg">
<path d="M22.1875 45.625C23.9584 44.2708 25.9375 43.2031 28.125 42.4218C30.3125 41.6406 32.6042 41.25 35 41.25C37.3959 41.25 39.6875 41.6406 41.875 42.4218C44.0625 43.2031 46.0417 44.2708 47.8125 45.625C49.0278 44.2013 49.974 42.5868 50.6511 40.7812C51.3281 38.9757 51.6667 37.0486 51.6667 35C51.6667 30.3819 50.0434 26.4496 46.7969 23.2031C43.5504 19.9566 39.6181 18.3333 35 18.3333C30.382 18.3333 26.4497 19.9566 23.2031 23.2031C19.9566 26.4496 18.3334 30.3819 18.3334 35C18.3334 37.0486 18.6719 38.9757 19.349 40.7812C20.0261 42.5868 20.9722 44.2013 22.1875 45.625ZM35 37.0833C32.9514 37.0833 31.224 36.3802 29.8177 34.9739C28.4115 33.5677 27.7084 31.8402 27.7084 29.7916C27.7084 27.743 28.4115 26.0156 29.8177 24.6093C31.224 23.2031 32.9514 22.5 35 22.5C37.0486 22.5 38.7761 23.2031 40.1823 24.6093C41.5886 26.0156 42.2917 27.743 42.2917 29.7916C42.2917 31.8402 41.5886 33.5677 40.1823 34.9739C38.7761 36.3802 37.0486 37.0833 35 37.0833ZM35 55.8333C32.1181 55.8333 29.4097 55.2864 26.875 54.1927C24.3403 53.0989 22.1354 51.6145 20.2604 49.7395C18.3854 47.8645 16.9011 45.6597 15.8073 43.125C14.7136 40.5902 14.1667 37.8819 14.1667 35C14.1667 32.118 14.7136 29.4097 15.8073 26.875C16.9011 24.3402 18.3854 22.1354 20.2604 20.2604C22.1354 18.3854 24.3403 16.901 26.875 15.8073C29.4097 14.7135 32.1181 14.1666 35 14.1666C37.882 14.1666 40.5903 14.7135 43.125 15.8073C45.6597 16.901 47.8646 18.3854 49.7396 20.2604C51.6146 22.1354 53.099 24.3402 54.1927 26.875C55.2865 29.4097 55.8334 32.118 55.8334 35C55.8334 37.8819 55.2865 40.5902 54.1927 43.125C53.099 45.6597 51.6146 47.8645 49.7396 49.7395C47.8646 51.6145 45.6597 53.0989 43.125 54.1927C40.5903 55.2864 37.882 55.8333 35 55.8333Z" fill="#997C70"/>
</svg>
