<svg width="247" height="35" viewBox="0 0 247 35" fill="none" xmlns="http://www.w3.org/2000/svg">
<path d="M0.4375 7.11222V0.545454H28.7138V7.11222H18.5696V34H10.598V7.11222H0.4375ZM52.2528 34.4737C49.6283 34.4737 47.3632 33.9564 45.4574 32.9219C43.5625 31.8764 42.1032 30.3899 41.0795 28.4624C40.0668 26.5239 39.5604 24.2206 39.5604 21.5526C39.5604 18.9607 40.0722 16.6955 41.0959 14.7571C42.1196 12.8078 43.5625 11.294 45.4247 10.2159C47.2869 9.12689 49.4813 8.58239 52.0078 8.58239C53.7938 8.58239 55.4273 8.86008 56.9084 9.41548C58.3894 9.97088 59.669 10.7931 60.7472 11.8821C61.8253 12.9711 62.6638 14.3161 63.2628 15.9169C63.8617 17.5069 64.1612 19.331 64.1612 21.3892V23.3821H42.3537V18.7429H56.7287C56.7178 17.8935 56.5163 17.1366 56.1243 16.4723C55.7322 15.808 55.1932 15.2907 54.5071 14.9205C53.8319 14.5393 53.0533 14.3487 52.1712 14.3487C51.2782 14.3487 50.4777 14.5502 49.7699 14.9531C49.062 15.3452 48.5012 15.8842 48.0874 16.5703C47.6735 17.2455 47.4557 18.0133 47.4339 18.8736V23.5945C47.4339 24.6181 47.6354 25.5166 48.0384 26.2898C48.4413 27.0521 49.013 27.6456 49.7536 28.0703C50.4941 28.495 51.3762 28.7074 52.3999 28.7074C53.1077 28.7074 53.7502 28.6094 54.3274 28.4134C54.9046 28.2173 55.4001 27.9287 55.8139 27.5476C56.2277 27.1664 56.5381 26.6982 56.745 26.1428L64.0795 26.3551C63.7746 27.9995 63.1049 29.4316 62.0703 30.6513C61.0466 31.8601 59.7017 32.8021 58.0355 33.4773C56.3693 34.1416 54.4418 34.4737 52.2528 34.4737ZM101.646 16.5703L94.312 16.7663C94.2357 16.2436 94.0288 15.7808 93.6912 15.3778C93.3536 14.964 92.9126 14.6428 92.3681 14.4141C91.8345 14.1745 91.2137 14.0547 90.5059 14.0547C89.5802 14.0547 88.7907 14.2398 88.1373 14.6101C87.4947 14.9803 87.1789 15.4813 87.1898 16.1129C87.1789 16.603 87.3749 17.0277 87.7779 17.3871C88.1917 17.7464 88.9268 18.035 89.9831 18.2528L94.8184 19.1676C97.3231 19.6468 99.1853 20.4418 100.405 21.5526C101.636 22.6634 102.256 24.1335 102.267 25.9631C102.256 27.6837 101.744 29.1811 100.732 30.4553C99.7298 31.7294 98.3577 32.7204 96.6152 33.4283C94.8728 34.1252 92.8799 34.4737 90.6365 34.4737C87.0537 34.4737 84.2277 33.7386 82.1586 32.2685C80.1003 30.7874 78.9242 28.8054 78.6301 26.3224L86.5201 26.1264C86.6943 27.0412 87.1462 27.7382 87.8759 28.2173C88.6055 28.6965 89.5366 28.9361 90.6692 28.9361C91.6929 28.9361 92.526 28.7455 93.1685 28.3643C93.811 27.9832 94.1377 27.4768 94.1486 26.8452C94.1377 26.2789 93.8873 25.8269 93.3972 25.4893C92.9071 25.1409 92.1394 24.8686 91.0939 24.6726L86.7161 23.8395C84.2005 23.3821 82.3274 22.5381 81.0968 21.3075C79.8662 20.0661 79.2563 18.487 79.2672 16.5703C79.2563 14.8932 79.7028 13.4612 80.6067 12.2741C81.5106 11.0762 82.7956 10.1615 84.4618 9.52983C86.128 8.8982 88.0937 8.58239 90.3588 8.58239C93.7566 8.58239 96.4355 9.29569 98.3958 10.7223C100.356 12.138 101.44 14.0874 101.646 16.5703ZM139.605 16.5703L132.271 16.7663C132.195 16.2436 131.988 15.7808 131.65 15.3778C131.313 14.964 130.872 14.6428 130.327 14.4141C129.793 14.1745 129.173 14.0547 128.465 14.0547C127.539 14.0547 126.75 14.2398 126.096 14.6101C125.454 14.9803 125.138 15.4813 125.149 16.1129C125.138 16.603 125.334 17.0277 125.737 17.3871C126.151 17.7464 126.886 18.035 127.942 18.2528L132.777 19.1676C135.282 19.6468 137.144 20.4418 138.364 21.5526C139.595 22.6634 140.215 24.1335 140.226 25.9631C140.215 27.6837 139.703 29.1811 138.691 30.4553C137.689 31.7294 136.317 32.7204 134.574 33.4283C132.832 34.1252 130.839 34.4737 128.596 34.4737C125.013 34.4737 122.187 33.7386 120.118 32.2685C118.059 30.7874 116.883 28.8054 116.589 26.3224L124.479 26.1264C124.653 27.0412 125.105 27.7382 125.835 28.2173C126.565 28.6965 127.496 28.9361 128.628 28.9361C129.652 28.9361 130.485 28.7455 131.127 28.3643C131.77 27.9832 132.097 27.4768 132.108 26.8452C132.097 26.2789 131.846 25.8269 131.356 25.4893C130.866 25.1409 130.098 24.8686 129.053 24.6726L124.675 23.8395C122.159 23.3821 120.286 22.5381 119.056 21.3075C117.825 20.0661 117.215 18.487 117.226 16.5703C117.215 14.8932 117.662 13.4612 118.566 12.2741C119.47 11.0762 120.755 10.1615 122.421 9.52983C124.087 8.8982 126.053 8.58239 128.318 8.58239C131.716 8.58239 134.395 9.29569 136.355 10.7223C138.315 12.138 139.399 14.0874 139.605 16.5703ZM167.388 34.4737C164.763 34.4737 162.498 33.9564 160.592 32.9219C158.697 31.8764 157.238 30.3899 156.214 28.4624C155.202 26.5239 154.695 24.2206 154.695 21.5526C154.695 18.9607 155.207 16.6955 156.231 14.7571C157.254 12.8078 158.697 11.294 160.559 10.2159C162.422 9.12689 164.616 8.58239 167.143 8.58239C168.929 8.58239 170.562 8.86008 172.043 9.41548C173.524 9.97088 174.804 10.7931 175.882 11.8821C176.96 12.9711 177.799 14.3161 178.398 15.9169C178.997 17.5069 179.296 19.331 179.296 21.3892V23.3821H157.488V18.7429H171.863C171.853 17.8935 171.651 17.1366 171.259 16.4723C170.867 15.808 170.328 15.2907 169.642 14.9205C168.967 14.5393 168.188 14.3487 167.306 14.3487C166.413 14.3487 165.613 14.5502 164.905 14.9531C164.197 15.3452 163.636 15.8842 163.222 16.5703C162.808 17.2455 162.59 18.0133 162.569 18.8736V23.5945C162.569 24.6181 162.77 25.5166 163.173 26.2898C163.576 27.0521 164.148 27.6456 164.888 28.0703C165.629 28.495 166.511 28.7074 167.535 28.7074C168.242 28.7074 168.885 28.6094 169.462 28.4134C170.039 28.2173 170.535 27.9287 170.949 27.5476C171.363 27.1664 171.673 26.6982 171.88 26.1428L179.214 26.3551C178.909 27.9995 178.24 29.4316 177.205 30.6513C176.181 31.8601 174.836 32.8021 173.17 33.4773C171.504 34.1416 169.577 34.4737 167.388 34.4737ZM194.876 34V8.90909H202.635V13.483H202.896C203.354 11.8277 204.1 10.5971 205.134 9.79119C206.169 8.97443 207.372 8.56605 208.744 8.56605C209.115 8.56605 209.496 8.59328 209.888 8.64773C210.28 8.69129 210.645 8.76207 210.982 8.86009V15.8026C210.601 15.6719 210.1 15.5684 209.479 15.4922C208.87 15.416 208.325 15.3778 207.846 15.3778C206.898 15.3778 206.044 15.5902 205.281 16.0149C204.53 16.4287 203.936 17.0114 203.501 17.7628C203.076 18.5033 202.864 19.3745 202.864 20.3764V34H194.876ZM231.867 34.4247C230.266 34.4247 228.845 34.1579 227.603 33.6243C226.373 33.0798 225.398 32.263 224.679 31.174C223.971 30.0741 223.618 28.6965 223.618 27.0412C223.618 25.6473 223.863 24.4711 224.353 23.5128C224.843 22.5545 225.518 21.7758 226.378 21.1768C227.239 20.5779 228.23 20.1259 229.351 19.821C230.473 19.5052 231.671 19.2928 232.945 19.1839C234.372 19.0533 235.52 18.9171 236.392 18.7756C237.263 18.6231 237.895 18.4107 238.287 18.1385C238.69 17.8553 238.891 17.4579 238.891 16.946V16.8643C238.891 16.0258 238.602 15.3778 238.025 14.9205C237.448 14.4631 236.669 14.2344 235.689 14.2344C234.633 14.2344 233.783 14.4631 233.141 14.9205C232.498 15.3778 232.09 16.0095 231.916 16.8153L224.549 16.554C224.766 15.0294 225.327 13.6681 226.231 12.4702C227.146 11.2614 228.398 10.3139 229.988 9.62784C231.589 8.93087 233.511 8.58239 235.755 8.58239C237.355 8.58239 238.831 8.77296 240.181 9.15412C241.532 9.52438 242.708 10.0689 243.71 10.7876C244.712 11.4955 245.485 12.3667 246.029 13.4013C246.585 14.4358 246.863 15.6174 246.863 16.946V34H239.348V30.5043H239.152C238.706 31.3537 238.134 32.0724 237.437 32.6605C236.751 33.2486 235.94 33.6896 235.003 33.9837C234.078 34.2777 233.032 34.4247 231.867 34.4247ZM234.333 29.1974C235.194 29.1974 235.967 29.0232 236.653 28.6747C237.35 28.3262 237.905 27.8471 238.319 27.2372C238.733 26.6165 238.94 25.8977 238.94 25.081V22.696C238.711 22.8158 238.434 22.9247 238.107 23.0227C237.791 23.1207 237.443 23.2133 237.061 23.3004C236.68 23.3875 236.288 23.4638 235.885 23.5291C235.482 23.5945 235.096 23.6544 234.725 23.7088C233.974 23.8286 233.332 24.0137 232.798 24.2642C232.275 24.5147 231.872 24.8414 231.589 25.2443C231.317 25.6364 231.181 26.1046 231.181 26.6491C231.181 27.4768 231.475 28.1084 232.063 28.544C232.662 28.9796 233.419 29.1974 234.333 29.1974Z" fill="#8EB486"/>
</svg>
